# xmcd
#
# Track frame offsets:
#	150
#	17186
#	28255
#	39285
#	54047
#	66587
#	78589
#	90782
#	100649
#	114001
#
# Disc length: 1742 seconds
#
# Revision: 1
# Processed by: cddbd v1.5.1PL0 Copyright (c) Steve Scherf et al.
# Submitted via: audiograbber 1.83.01
#
DISCID=6a06cc0a
DTITLE=Vernon Oxford - The Tradition Continues
DYEAR=1983
DGENRE=Country
TTITLE0=George
TTITLE1=I Sure Need Her Now
TTITLE2=It Don't Mean I Love You Less
TTITLE3=Shadows Of My Mind
TTITLE4=I've Tried Everything But You
TTITLE5=Midnight Memories
TTITLE6=I Had A Talk With The Man
TTITLE7=One
TTITLE8=Only The Shadows Know
TTITLE9=It Is Finished
EXTD=
EXTT0=
EXTT1=
EXTT2=
EXTT3=
EXTT4=
EXTT5=
EXTT6=
EXTT7=
EXTT8=
EXTT9=
PLAYORDER=
